<svg xmlns="http://www.w3.org/2000/svg" width="430" height="430" style="width:100%;height:100%;transform:translate3d(0,0,0);content-visibility:visible" viewBox="0 0 430 430"><defs><clipPath id="c"><path d="M0 0h430v430H0z"/></clipPath><clipPath id="i"><path d="M0 0h430v430H0z"/></clipPath><clipPath id="h"><path d="M0 0h430v430H0z"/></clipPath><clipPath id="g"><path d="M0 0h430v430H0z"/></clipPath><clipPath id="f"><path d="M0 0h430v430H0z"/></clipPath><clipPath id="d"><path d="M0 0h430v430H0z"/></clipPath><filter id="a" width="100%" height="100%" x="0%" y="0%" filterUnits="objectBoundingBox"><feComponentTransfer in="SourceGraphic"><feFuncA tableValues="1.0 0.0" type="table"/></feComponentTransfer></filter><path id="b" style="display:none"/><mask id="e" mask-type="alpha"><g filter="url(#a)"><path fill="#fff" d="M0 0h430v430H0z" opacity="0"/><use xmlns:ns1="http://www.w3.org/1999/xlink" ns1:href="#b"/></g></mask></defs><g clip-path="url(#c)"><g clip-path="url(#d)" style="display:none"><g mask="url(#e)" style="display:none"><path fill="none" class="primary"/></g><g fill="none" style="display:none"><path class="secondary"/><path class="primary"/></g><g style="display:none"><path class="secondary"/><path fill="none" class="secondary"/></g><g fill="none" style="display:none"><path class="secondary"/><path class="primary"/></g><path fill="none" class="primary" style="display:none"/></g><g clip-path="url(#f)" style="display:none"><g fill="none" style="display:none"><path class="secondary"/><path class="primary"/></g><g style="display:none"><path class="secondary"/><path fill="none" class="secondary"/></g><g fill="none" style="display:none"><path class="secondary"/><path class="primary"/></g><g fill="none" style="display:none"><path class="primary"/><path class="primary"/></g></g><g clip-path="url(#g)" style="display:none"><path fill="none" class="primary" style="display:none"/><path fill="none" class="primary" style="display:none"/><path fill="none" class="primary" style="display:none"/><path fill="none" class="secondary" style="display:none"/><path fill="none" class="secondary" style="display:none"/><g style="display:none"><path class="secondary"/><path fill="none" class="secondary"/></g></g><g clip-path="url(#h)" style="display:block"><path fill="none" stroke="#121330" stroke-width="18" d="M-100-160c-33.137 0-60 26.863-60 60v200c0 33.137 26.863 60 60 60h200c33.137 0 60-26.863 60-60v-200c0-33.137-26.863-60-60-60z" class="primary" style="display:block" transform="translate(215 215)"/><g fill="none" style="display:block"><path d="M215 130c46.911 0 85 38.089 85 85s-38.089 85-85 85-85-38.089-85-85 38.089-85 85-85" class="secondary"/><path stroke="#000" stroke-width="18" d="M215 130c46.911 0 85 38.089 85 85s-38.089 85-85 85-85-38.089-85-85 38.089-85 85-85z" class="secondary"/></g><g style="display:block"><path fill="#797979" d="M314.938 115h-.063"/><path fill="none" stroke="#121330" stroke-linecap="round" stroke-linejoin="round" stroke-width="30" d="M314.938 115h-.063" class="primary"/></g></g><g clip-path="url(#i)" style="display:none"><path fill="none" class="primary" style="display:none"/><path fill="none" class="secondary" style="display:none"/><g style="display:none"><path/><path fill="none" class="primary"/></g></g></g></svg>